<svg xmlns="http://www.w3.org/2000/svg" xmlns:xlink="http://www.w3.org/1999/xlink" xmlns:sketch="http://www.bohemiancoding.com/sketch/ns" width="30px" height="30px" viewBox="0 0 30 30" version="1.1"><style>.style0{fill:	none;fill-rule:	evenodd;}.style1{fill:	#D40F27;}.style2{fill:	#D0011B;}</style><!-- Generator: Sketch 3.0.4 (8054) - http://www.bohemiancoding.com/sketch --><title>Delete</title><desc>Created with Sketch.</desc><defs/><g sketch:type="MSPage" class="style0"><g sketch:type="MSArtboardGroup" transform="translate(-961.000000, -286.000000)"><g sketch:type="MSLayerGroup" transform="translate(40.000000, 161.000000)"><g sketch:type="MSShapeGroup"><path d="M951 140 C951 131.7 944.3 125 936 125 C927.7 125 921 131.7 921 140 C921 148.3 927.7 155 936 155 C944.3 155 951 148.3 951 140 ZM923 140 C923 132.8 928.8 127 936 127 C943.2 127 949 132.8 949 140 C949 147.2 943.2 153 936 153 C928.8 153 923 147.2 923 140 Z" class="style1"/><path d="M941.8 147.2 L942.5 147.9 L943.9 146.5 L943.2 145.8 L930.2 132.8 L929.5 132.1 L928.1 133.5 L928.8 134.2 L941.8 147.2 Z" class="style2"/><path d="M943.2 134.2 L943.9 133.5 L942.5 132.1 L941.8 132.8 L928.8 145.8 L928.1 146.5 L929.5 147.9 L930.2 147.2 L943.2 134.2 Z" class="style2"/></g></g></g></g></svg>