<svg xmlns="http://www.w3.org/2000/svg" xmlns:xlink="http://www.w3.org/1999/xlink" xmlns:sketch="http://www.bohemiancoding.com/sketch/ns" width="82px" height="81px" viewBox="0 0 82 81" version="1.1"><style>.style0{stop-color:	#FFFFFF;}.style1{stop-color:	#F4F4F4;}.style2{fill:	none;fill-rule:	evenodd;}.style3{fill:	url(#radialGradient-1);fill-rule:	evenodd;}.style4{fill:	none;}</style><!-- Generator: Sketch 3.0.4 (8054) - http://www.bohemiancoding.com/sketch --><title>Icon</title><desc>Created with Sketch.</desc><defs><radialGradient cx="50%" cy="50%" fx="50%" fy="50%" r="97.0738091%" id="radialGradient-1"><stop offset="0%" class="style0"/><stop offset="100%" class="style1"/></radialGradient><path d="M89.9771461 28.1 C89.9096987 21.9 89.7 19.7 89 17.1 C88.8779802 16.8 88.8 16.6 88.7 16.3 L88.8245212 16.6 C87.5450414 13.2 84.8 10.5 81.2 9.2 L81.5137629 9.3 C81.2328882 9.2 81 9.1 80.7 9 C77.3649889 8.2 74.6 8 63.8 8 L34.1668833 8 C23.3579706 8 20.6 8.2 17.3 9 C17.0434231 9.1 16.8 9.2 16.5 9.3 L16.807114 9.2 C13.2427376 10.5 10.5 13.2 9.2 16.6 L9.28923313 16.3 C9.20236369 16.6 9.1 16.8 9 17.1 C8.15243542 20.3 8 23 8 33.6 L8 39.7 L28.4053249 78.7 L48.8920967 27.7 C50.1186382 24.7 50.1 24.7 51.6 21.1 C53.0623376 17.5 53.1 17.5 54.3 14.5 C55.2701121 12.1 55.3 12.1 55.5 11.5 L56.9007423 8.1 L59.0024455 11.1 L73.9922447 32.8 L89.9771461 28.1 Z M89.9991712 32.3 C89.9997378 32.7 90 33.1 90 33.6 L90 62.7 C90 73.3 89.8 75.9 89 79.1 C88.8788061 79.4 88.8 79.7 88.7 79.9 L88.8245212 79.6 C87.5450598 83 84.8 85.8 81.2 87.1 L81.5127077 87 C81.2318685 87 81 87.1 80.7 87.2 C77.3644521 88.1 74.6 88.2 63.8 88.2 L34.1668833 88.2 C23.3583196 88.2 20.6 88.1 17.3 87.2 C17.0444066 87.1 16.8 87 16.5 87 L16.8061875 87.1 C13.2425062 85.8 10.5 83 9.2 79.6 L9.28934341 79.9 C9.20196806 79.7 9.1 79.4 9 79.1 C8.15225567 75.9 8 73.3 8 62.7 L8 48.4 L26.6011357 84 L28.5939451 87.8 L30.2243174 83.8 L52.5936335 29.2 C53.820175 26.2 53.8 26.2 55.3 22.6 C56.7638743 19 58 16.3 58 16.3 L71.787883 36.3 L72.6142939 37.4 L73.9922434 37 L89.9991712 32.3 Z" id="path-2"/></defs><g id="Welcome" sketch:type="MSPage" class="style2"><g id="Desktop-HD" sketch:type="MSArtboardGroup" transform="translate(-12.000000, -10.000000)"><g id="BarContent" sketch:type="MSLayerGroup" transform="translate(4.000000, 0.000000)"><g id="Icon" transform="translate(0.000000, 2.000000)"><g id="Background"><use sketch:type="MSShapeGroup" xlink:href="#path-2" class="style3"/><use xlink:href="#path-2" class="style4"/></g></g></g></g></g></svg>