<svg xmlns="http://www.w3.org/2000/svg" xmlns:xlink="http://www.w3.org/1999/xlink" xmlns:sketch="http://www.bohemiancoding.com/sketch/ns" width="30px" height="30px" viewBox="0 0 30 30" version="1.1"><style>.none{fill:	none;fill-rule:	evenodd;}.green{fill:#2ecc71;}</style><!-- Generator: Sketch 3.0.4 (8054) - http://www.bohemiancoding.com/sketch --><title>Tick</title><desc>Created with Sketch.</desc><defs/><g sketch:type="MSPage" class="none"><g sketch:type="MSArtboardGroup" transform="translate(-925.000000, -286.000000)" class="green"><g sketch:type="MSLayerGroup" transform="translate(40.000000, 161.000000)"><g sketch:type="MSShapeGroup"><path d="M915 140 C915 131.7 908.3 125 900 125 C891.7 125 885 131.7 885 140 C885 148.3 891.7 155 900 155 C908.3 155 915 148.3 915 140 ZM887 140 C887 132.8 892.8 127 900 127 C907.2 127 913 132.8 913 140 C913 147.2 907.2 153 900 153 C892.8 153 887 147.2 887 140 Z"/><path d="M896.5 146.3 L897.2 147 L897.9 146.3 L908.4 135.9 L907 134.5 L896.5 144.9 L897.9 144.9 L892.9 140 L891.5 141.4 L896.5 146.3 Z"/></g></g></g></g></svg>