<svg xmlns="http://www.w3.org/2000/svg" xmlns:xlink="http://www.w3.org/1999/xlink" xmlns:sketch="http://www.bohemiancoding.com/sketch/ns" width="32px" height="32px" viewBox="0 0 32 32" version="1.1"><style>.none{fill:	none;fill-rule:	evenodd;}.green1{fill:	#3BB99C;}</style><!-- Generator: Sketch 3.0.4 (8054) - http://www.bohemiancoding.com/sketch --><title>Plus</title><desc>Created with Sketch.</desc><defs/><g sketch:type="MSPage" class="none"><g sketch:type="MSArtboardGroup" transform="translate(-41.000000, -961.000000)" class="green1"><g sketch:type="MSLayerGroup" transform="translate(40.000000, 161.000000)"><g sketch:type="MSShapeGroup"><path d="M27.3 804.6 C21.4 798.7 12 798.7 6.1 804.6 C0.2 810.5 0.2 819.9 6.1 825.8 C11.9 831.7 21.4 831.7 27.3 825.8 C33.1 819.9 33.2 810.5 27.3 804.6 ZM7.5 824.4 C2.4 819.3 2.4 811.1 7.5 806 C12.5 800.9 20.8 800.9 25.9 806 C30.9 811.1 31 819.3 25.9 824.4 C20.8 829.5 12.6 829.5 7.5 824.4 Z"/><path d="M22.7 816.2 L23.7 816.2 L23.7 814.2 L22.7 814.2 L10.6 814.2 L9.6 814.2 L9.6 816.2 L10.6 816.2 L22.7 816.2 Z"/><path d="M17.7 809.1 L17.7 808.1 L15.7 808.1 L15.7 809.1 L15.7 821.3 L15.7 822.3 L17.7 822.3 L17.7 821.3 L17.7 809.1 Z"/></g></g></g></g></svg>